<svg xmlns="http://www.w3.org/2000/svg" viewBox="0 0 500 500"><g id="freepik--background-simple--inject-222"><path d="M451.67,117q-2.52-4.2-5.25-8.22c-24.28-35.67-64.69-60.09-104-71.15a224,224,0,0,0-52.51-8c-115.68-4.2-158.18,91.17-195.45,115.77S0,211.91,7.21,300.15c5.44,67.09,43.61,131.24,113.31,160.43a197.16,197.16,0,0,0,24.19,8.35,230.64,230.64,0,0,0,51.09,7.85c52.7,2.35,95.49-10.35,137.35-42.34,9.73-7.44,19.41-15.83,32-16.75,9.18-.66,17.88,2.63,8.29,11.5-11.28,10.43,1.73,30.93,30.35,16.69,47.81-23.8,67.47-75.13,76.73-127.32C491.93,254.49,486.41,174.81,451.67,117Z" style="fill:#FBFBFB"></path><path d="M451.67,117q-2.52-4.2-5.25-8.22c-24.28-35.67-64.69-60.09-104-71.15a224,224,0,0,0-52.51-8c-115.68-4.2-158.18,91.17-195.45,115.77S0,211.91,7.21,300.15c5.44,67.09,43.61,131.24,113.31,160.43a197.16,197.16,0,0,0,24.19,8.35,230.64,230.64,0,0,0,51.09,7.85c52.7,2.35,95.49-10.35,137.35-42.34,9.73-7.44,19.41-15.83,32-16.75,9.18-.66,17.88,2.63,8.29,11.5-11.28,10.43,1.73,30.93,30.35,16.69,47.81-23.8,67.47-75.13,76.73-127.32C491.93,254.49,486.41,174.81,451.67,117Z" style="fill:#fff;opacity:0.7000000000000001"></path></g><g id="freepik--Space--inject-222"><path d="M206.19,460.54c-3.7,0-7.53-.09-11.38-.26A215.63,215.63,0,0,1,147.29,453a181.09,181.09,0,0,1-22-7.6C66.6,420.84,28.38,366.5,23,300,20.2,265.8,27.78,237,46.15,212c15.51-21.14,36.19-36.28,56.22-49.5,13.07-8.62,24.73-21.68,38.24-36.79,31.75-35.53,71.27-79.75,143.52-79.75,2.21,0,4.48,0,6.73.12a207.59,207.59,0,0,1,48.62,7.42c39.15,11,74.26,34.86,93.93,63.77,1.57,2.31,3.15,4.77,4.68,7.32,34.67,57.73,36.58,137.15,26.8,192.23-9.68,54.57-27.59,89.35-56,108.2a30.43,30.43,0,0,0-1.63-6c-5-12.79-18-20.43-34.68-20.43-1.4,0-2.83.05-4.25.16-19.79,1.44-34.16,12.55-44.65,20.67L321,421.46C285.67,448.49,250.25,460.54,206.19,460.54Z" style="fill:#263238"></path></g><g id="freepik--Text--inject-222"><path d="M137.66,393.7v-40h14.47v2.91H141.46v15h8.7v2.77h-8.7v16.49h10.77v2.82Z" style="fill:#b2b2b2"></path><path d="M157.37,393.7v-40h9a12,12,0,0,1,5.9,1.21,6.91,6.91,0,0,1,3.08,3.51,14.3,14.3,0,0,1,.94,5.46,17.13,17.13,0,0,1-.49,4.19,8.07,8.07,0,0,1-1.68,3.36,5.82,5.82,0,0,1-3.36,1.83l6.13,20.45h-3.66L167.39,374h-6.27V393.7Zm3.75-22.43h5.09a7.53,7.53,0,0,0,3.9-.84,4.61,4.61,0,0,0,2-2.47,11.93,11.93,0,0,0,.6-4.09,9.66,9.66,0,0,0-1.29-5.54c-.85-1.21-2.55-1.82-5.08-1.82h-5.19Z" style="fill:#b2b2b2"></path><path d="M182.65,393.7v-40h9a12.11,12.11,0,0,1,5.91,1.21,6.91,6.91,0,0,1,3.08,3.51,14.3,14.3,0,0,1,.94,5.46,17.13,17.13,0,0,1-.49,4.19,8.07,8.07,0,0,1-1.68,3.36,5.82,5.82,0,0,1-3.36,1.83l6.12,20.45h-3.65L192.68,374h-6.27V393.7Zm3.76-22.43h5.09a7.56,7.56,0,0,0,3.9-.84,4.61,4.61,0,0,0,2-2.47,11.93,11.93,0,0,0,.6-4.09,9.66,9.66,0,0,0-1.29-5.54c-.86-1.21-2.55-1.82-5.09-1.82h-5.18Z" style="fill:#b2b2b2"></path><path d="M217.38,394.19a10.81,10.81,0,0,1-6.2-1.55,8.24,8.24,0,0,1-3.16-4.35,20.5,20.5,0,0,1-.92-6.4V365.3a18.67,18.67,0,0,1,1-6.35,8.11,8.11,0,0,1,3.21-4.17,13.39,13.39,0,0,1,12.24,0,8,8,0,0,1,3.19,4.17,19.22,19.22,0,0,1,.94,6.35v16.64a20.52,20.52,0,0,1-.91,6.37,8.3,8.3,0,0,1-3.14,4.33A10.79,10.79,0,0,1,217.38,394.19Zm0-3a6.58,6.58,0,0,0,4.05-1.06,5.44,5.44,0,0,0,1.9-3,17.08,17.08,0,0,0,.52-4.42V364.61a16.86,16.86,0,0,0-.52-4.4,5.19,5.19,0,0,0-1.9-2.89,8.58,8.58,0,0,0-8.08,0,5.13,5.13,0,0,0-1.93,2.89,16.89,16.89,0,0,0-.51,4.4v18.12a17.1,17.1,0,0,0,.51,4.42,5.37,5.37,0,0,0,1.93,3A6.58,6.58,0,0,0,217.38,391.18Z" style="fill:#b2b2b2"></path><path d="M233.87,393.7v-40h9a12,12,0,0,1,5.9,1.21,7,7,0,0,1,3.09,3.51,14.5,14.5,0,0,1,.94,5.46,17.63,17.63,0,0,1-.49,4.19,8.19,8.19,0,0,1-1.68,3.36,5.85,5.85,0,0,1-3.36,1.83l6.12,20.45h-3.65L243.9,374h-6.27V393.7Zm3.76-22.43h5.08a7.53,7.53,0,0,0,3.9-.84,4.62,4.62,0,0,0,2-2.47,12,12,0,0,0,.59-4.09,9.67,9.67,0,0,0-1.28-5.54c-.86-1.21-2.55-1.82-5.09-1.82h-5.18Z" style="fill:#b2b2b2"></path><path d="M269.24,393.7v-40h9.58a10.35,10.35,0,0,1,5.65,1.33,7.38,7.38,0,0,1,2.94,3.71,15.93,15.93,0,0,1,.89,5.58,14.48,14.48,0,0,1-.91,5.21,8,8,0,0,1-3,3.83,9.61,9.61,0,0,1-5.5,1.43H273V393.7ZM273,372h4.79a9.2,9.2,0,0,0,3.93-.72,4.44,4.44,0,0,0,2.2-2.4,12.17,12.17,0,0,0,.69-4.54,15,15,0,0,0-.6-4.77,3.87,3.87,0,0,0-2.05-2.37,10.25,10.25,0,0,0-4.12-.66H273Z" style="fill:#b2b2b2"></path><path d="M288.89,393.7l8.45-40h4l8.5,40h-3.71l-2-10.72h-9.54l-2,10.72Zm6.23-13.44h8.49l-4.3-21.58Z" style="fill:#b2b2b2"></path><path d="M323.57,394.24a9.83,9.83,0,0,1-5.91-1.58,8.39,8.39,0,0,1-3-4.47,22.58,22.58,0,0,1-.89-6.69V365.89a23.08,23.08,0,0,1,.86-6.67,8.15,8.15,0,0,1,3.06-4.37,13.05,13.05,0,0,1,11.91-.22,7.54,7.54,0,0,1,3,3.9,18.5,18.5,0,0,1,.93,6.27v1.39H330V364.8a18.39,18.39,0,0,0-.52-4.74,5,5,0,0,0-1.8-2.81,6.41,6.41,0,0,0-3.81-.94,6.17,6.17,0,0,0-4.1,1.18,5.62,5.62,0,0,0-1.8,3.26,24.14,24.14,0,0,0-.42,4.74v16.45a20.55,20.55,0,0,0,.52,5,5.54,5.54,0,0,0,1.93,3.16,6.32,6.32,0,0,0,4,1.09,5.25,5.25,0,0,0,5.73-4.3,20.24,20.24,0,0,0,.54-5v-4.69h-5.92v-2.81h9.38V393.7h-2.42l-.44-4.55a7.64,7.64,0,0,1-2.45,3.71A7.45,7.45,0,0,1,323.57,394.24Z" style="fill:#b2b2b2"></path><path d="M340.16,393.7v-40h14.47v2.91H344v15h8.7v2.77H344v16.49h10.77v2.82Z" style="fill:#b2b2b2"></path></g><g id="freepik--Number--inject-222"><path d="M121.82,338.88V289.81H62.16V260.72l52-121.54h39.69V262.69h20.46v27.12H153.87v49.07ZM90.75,262.69h31.07V175.91Zm153.6,79.14q-17.5,0-29-7.39A45.83,45.83,0,0,1,198.12,314q-5.79-13.08-5.79-30.08V195.39q0-17.5,5.55-30.69a44.17,44.17,0,0,1,17-20.59q11.46-7.4,29.46-7.4t29.46,7.4a44.28,44.28,0,0,1,17,20.59q5.55,13.19,5.55,30.69V283.9q0,17-5.8,30.08a45.81,45.81,0,0,1-17.25,20.46Q261.85,341.84,244.35,341.83Zm0-29.33q7.64,0,11.34-4.69a25.57,25.57,0,0,0,4.93-11.34,71.82,71.82,0,0,0,1.23-13.07V195.88a84.53,84.53,0,0,0-1.11-13.68,24.46,24.46,0,0,0-4.81-11.46q-3.69-4.68-11.58-4.69t-11.59,4.69A24.56,24.56,0,0,0,228,182.2a84.53,84.53,0,0,0-1.11,13.68V283.4a64.93,64.93,0,0,0,1.36,13.07,26.52,26.52,0,0,0,5.05,11.34Q237,312.51,244.35,312.5Zm133.38,26.38V289.81H318.06V260.72l52-121.54h39.69V262.69h20.47v27.12H409.77v49.07Zm-31.07-76.19h31.07V175.91Z" style="fill:#FBFBFB;stroke:#263238;stroke-miterlimit:10"></path></g></svg>